<svg width="214" height="38" viewBox="0 0 214 38" fill="none" xmlns="http://www.w3.org/2000/svg">
<path d="M58.0323 28.89V27.8836C58.8065 27.8492 59.3742 27.7803 59.7355 27.6771C60.114 27.5739 60.3634 27.3674 60.4839 27.0578C60.6043 26.7481 60.6645 26.2836 60.6645 25.6642V13.8449C60.6645 13.2255 60.6043 12.7696 60.4839 12.4771C60.3634 12.1674 60.114 11.9524 59.7355 11.832C59.357 11.7115 58.7892 11.6427 58.0323 11.6255V10.619C58.3935 10.6363 58.9699 10.6535 59.7613 10.6707C60.5527 10.6707 61.5419 10.6707 62.729 10.6707C63.8817 10.6707 64.8022 10.6621 65.4903 10.6449C66.1957 10.6276 66.7548 10.619 67.1677 10.619C69.4387 10.619 71.1419 10.9717 72.2774 11.6771C73.4129 12.3825 73.9806 13.4578 73.9806 14.9029C73.9806 16.0556 73.5333 17.0018 72.6387 17.7416C71.7441 18.4642 70.4022 18.9717 68.6129 19.2642V19.29C70.8495 19.4104 72.5441 19.8664 73.6968 20.6578C74.8495 21.432 75.4258 22.533 75.4258 23.961C75.4258 25.5094 74.7462 26.7223 73.3871 27.5997C72.0452 28.4599 70.1699 28.89 67.7613 28.89C67.4516 28.89 67.0903 28.8814 66.6774 28.8642C66.2645 28.847 65.7398 28.8384 65.1032 28.8384C64.4839 28.8212 63.7011 28.8126 62.7548 28.8126C61.5677 28.8126 60.5699 28.8212 59.7613 28.8384C58.9699 28.8384 58.3935 28.8556 58.0323 28.89ZM67.0129 27.832C68.2516 27.832 69.1892 27.5051 69.8258 26.8513C70.4624 26.1803 70.7806 25.2169 70.7806 23.961C70.7806 22.6363 70.4108 21.6298 69.671 20.9416C68.9484 20.2363 67.8817 19.8836 66.471 19.8836H63.8903V18.9287H66.3677C67.4688 18.9287 68.3204 18.5932 68.9226 17.9223C69.5247 17.2513 69.8258 16.3137 69.8258 15.1094C69.8258 14.0083 69.5591 13.1567 69.0258 12.5545C68.4925 11.9352 67.7011 11.6255 66.6516 11.6255H65.1032V25.69C65.1032 26.2578 65.1548 26.6965 65.2581 27.0061C65.3785 27.3158 65.5763 27.5309 65.8516 27.6513C66.1269 27.7717 66.514 27.832 67.0129 27.832ZM77.1343 28.89V27.8836C77.9773 27.8664 78.5622 27.7287 78.8891 27.4707C79.2332 27.2126 79.4052 26.7309 79.4052 26.0255V18.7997C79.4052 18.0255 79.2418 17.4664 78.9149 17.1223C78.6052 16.761 78.0117 16.5631 77.1343 16.5287V15.5223C77.4956 15.5395 77.8483 15.5567 78.1923 15.5739C78.5536 15.5911 78.9149 15.5997 79.2762 15.5997C80.0676 15.5997 80.8074 15.5739 81.4956 15.5223C82.1837 15.4535 82.8203 15.3588 83.4052 15.2384V26.0255C83.4052 26.7481 83.5773 27.2384 83.9214 27.4965C84.2655 27.7373 84.8504 27.8664 85.6762 27.8836V28.89C85.4181 28.8728 85.0569 28.8642 84.5923 28.8642C84.145 28.847 83.6461 28.8298 83.0956 28.8126C82.5622 28.7954 82.0203 28.7868 81.4698 28.7868C80.6612 28.7868 79.844 28.804 79.0181 28.8384C78.1923 28.8556 77.5644 28.8728 77.1343 28.89ZM81.2891 13.0449C80.687 13.0449 80.145 12.8556 79.6633 12.4771C79.1988 12.0986 78.9665 11.5739 78.9665 10.9029C78.9665 10.2147 79.1988 9.68141 79.6633 9.30292C80.145 8.92442 80.687 8.73518 81.2891 8.73518C81.8913 8.73518 82.4332 8.92442 82.9149 9.30292C83.3966 9.68141 83.6375 10.2061 83.6375 10.8771C83.6375 11.5653 83.3966 12.0986 82.9149 12.4771C82.4332 12.8556 81.8913 13.0449 81.2891 13.0449ZM90.9399 29.2513C89.8216 29.2513 88.9356 28.9588 88.2819 28.3739C87.6281 27.7889 87.3012 26.9889 87.3012 25.9739C87.3012 25.1997 87.4819 24.5717 87.8431 24.09C88.2044 23.5911 88.669 23.1868 89.2367 22.8771C89.8216 22.5674 90.4324 22.3094 91.069 22.1029C91.7227 21.8965 92.3335 21.6986 92.9012 21.5094C93.4862 21.3201 93.9593 21.0965 94.3206 20.8384C94.6819 20.5803 94.8625 20.2363 94.8625 19.8061V18.5674C94.8625 17.8104 94.6647 17.2341 94.269 16.8384C93.8905 16.4255 93.3313 16.219 92.5915 16.219C92.041 16.219 91.5937 16.2965 91.2496 16.4513C90.9227 16.6061 90.7593 16.8212 90.7593 17.0965C90.7593 17.3201 90.8281 17.5438 90.9657 17.7674C91.1206 17.9739 91.2668 18.1975 91.4044 18.4384C91.5421 18.6793 91.6109 18.9459 91.6109 19.2384C91.6109 19.6341 91.4474 19.9524 91.1206 20.1932C90.7937 20.4341 90.355 20.5545 89.8044 20.5545C89.2023 20.5545 88.7206 20.3825 88.3593 20.0384C88.0152 19.6943 87.8431 19.2298 87.8431 18.6449C87.8431 17.9395 88.0926 17.3287 88.5915 16.8126C89.0905 16.2965 89.7872 15.8922 90.6819 15.5997C91.5765 15.3072 92.6173 15.161 93.8044 15.161C95.0087 15.161 95.9808 15.3244 96.7206 15.6513C97.4776 15.961 98.0195 16.4771 98.3464 17.1997C98.6905 17.9223 98.8625 18.8943 98.8625 20.1158V26.7223C98.8625 27.1008 98.9227 27.376 99.0431 27.5481C99.1636 27.7029 99.3528 27.7803 99.6109 27.7803C99.8173 27.7803 100.024 27.7373 100.23 27.6513C100.454 27.5653 100.678 27.4449 100.901 27.29L101.314 28.1158C100.85 28.4943 100.316 28.7782 99.7141 28.9674C99.1292 29.1567 98.4668 29.2513 97.727 29.2513C95.8862 29.2513 94.9485 28.5631 94.9141 27.1868C94.4324 27.875 93.856 28.3911 93.1851 28.7352C92.5313 29.0793 91.7829 29.2513 90.9399 29.2513ZM92.9012 27.2126C93.2797 27.2126 93.641 27.1266 93.9851 26.9545C94.3292 26.7825 94.6216 26.5158 94.8625 26.1545V21.2513C94.7421 21.5266 94.5356 21.7674 94.2431 21.9739C93.9679 22.1631 93.6582 22.3524 93.3141 22.5416C92.97 22.7309 92.6345 22.9459 92.3077 23.1868C91.998 23.4276 91.7313 23.7201 91.5077 24.0642C91.3012 24.4083 91.198 24.8298 91.198 25.3287C91.198 25.9309 91.3442 26.3954 91.6367 26.7223C91.9464 27.0492 92.3679 27.2126 92.9012 27.2126ZM102.197 28.89V27.8836C103.074 27.8664 103.668 27.7287 103.977 27.4707C104.304 27.1954 104.468 26.7137 104.468 26.0255V18.7997C104.468 17.9911 104.296 17.4233 103.952 17.0965C103.608 16.7524 103.023 16.5631 102.197 16.5287V15.5223C102.747 15.5395 103.177 15.5567 103.487 15.5739C103.814 15.5911 104.175 15.5997 104.571 15.5997C106.085 15.5997 107.384 15.4793 108.468 15.2384V25.7932C108.468 26.5502 108.691 27.0836 109.139 27.3932C109.586 27.7029 110.377 27.8664 111.513 27.8836V28.89C111.186 28.8728 110.747 28.8642 110.197 28.8642C109.646 28.847 109.053 28.8298 108.416 28.8126C107.78 28.7954 107.16 28.7868 106.558 28.7868C105.681 28.7868 104.829 28.804 104.003 28.8384C103.195 28.8556 102.592 28.8728 102.197 28.89ZM112.597 20.5803C112.132 20.5803 111.762 20.4599 111.487 20.219C111.212 19.961 111.074 19.6255 111.074 19.2126C111.074 18.9545 111.117 18.7223 111.203 18.5158C111.306 18.3094 111.401 18.1115 111.487 17.9223C111.573 17.733 111.616 17.5438 111.616 17.3545C111.616 16.976 111.375 16.7868 110.894 16.7868C110.567 16.7868 110.24 16.8642 109.913 17.019C109.586 17.1739 109.285 17.3975 109.01 17.69C108.752 17.9653 108.545 18.2922 108.39 18.6707L108.339 17.561C108.734 16.8212 109.276 16.2363 109.965 15.8061C110.653 15.376 111.384 15.161 112.158 15.161C112.984 15.161 113.629 15.4018 114.094 15.8836C114.558 16.3653 114.79 17.0363 114.79 17.8965C114.79 18.7051 114.584 19.3588 114.171 19.8578C113.775 20.3395 113.251 20.5803 112.597 20.5803ZM122.14 29.2513C120.781 29.2513 119.749 28.8814 119.044 28.1416C118.355 27.3846 118.011 26.275 118.011 24.8126V16.5287H115.327V15.5223H118.011V11.8578C118.785 11.8578 119.499 11.8147 120.153 11.7287C120.807 11.6255 121.426 11.4879 122.011 11.3158V15.5223H125.65V16.5287H122.011V25.7158C122.011 26.3008 122.132 26.7395 122.373 27.032C122.631 27.3072 123.001 27.4449 123.482 27.4449C123.93 27.4449 124.308 27.3072 124.618 27.032C124.945 26.7567 125.228 26.3352 125.469 25.7674L126.244 26.1545C125.865 27.2384 125.349 28.0298 124.695 28.5287C124.059 29.0104 123.207 29.2513 122.14 29.2513ZM133.779 29.2513C132.471 29.2513 131.336 28.976 130.372 28.4255C129.409 27.8578 128.66 27.0492 128.127 25.9997C127.611 24.9502 127.353 23.7029 127.353 22.2578C127.353 20.7266 127.637 19.4363 128.204 18.3868C128.772 17.3201 129.564 16.5201 130.579 15.9868C131.611 15.4363 132.807 15.161 134.166 15.161C135.404 15.161 136.445 15.3846 137.288 15.832C138.131 16.2793 138.768 16.9674 139.198 17.8965C139.628 18.8255 139.826 20.0212 139.792 21.4836H130.269L130.217 20.5029H136.308C136.325 19.6599 136.256 18.9201 136.101 18.2836C135.946 17.6298 135.706 17.1223 135.379 16.761C135.052 16.3825 134.622 16.1932 134.088 16.1932C133.417 16.1932 132.841 16.5545 132.359 17.2771C131.895 17.9825 131.619 19.118 131.533 20.6836L131.585 20.7868C131.568 20.9416 131.551 21.1051 131.533 21.2771C131.533 21.4492 131.533 21.6556 131.533 21.8965C131.533 23.5825 131.843 24.8986 132.463 25.8449C133.099 26.7739 134.011 27.2384 135.198 27.2384C136.041 27.2384 136.764 27.032 137.366 26.619C137.985 26.2061 138.51 25.5696 138.94 24.7094L139.869 25.1997C139.336 26.5244 138.553 27.5309 137.521 28.219C136.488 28.9072 135.241 29.2513 133.779 29.2513ZM148.303 29.2513C147.563 29.2513 146.944 29.1739 146.445 29.019C145.963 28.8642 145.551 28.718 145.206 28.5803C144.88 28.4255 144.587 28.3481 144.329 28.3481C143.899 28.3481 143.589 28.6061 143.4 29.1223H142.394C142.445 28.6406 142.48 28.1588 142.497 27.6771C142.514 27.1782 142.523 26.6276 142.523 26.0255C142.523 25.4061 142.523 24.7094 142.523 23.9352H143.503C143.83 25.3459 144.363 26.4126 145.103 27.1352C145.86 27.8406 146.806 28.1932 147.942 28.1932C148.682 28.1932 149.249 28.0384 149.645 27.7287C150.058 27.419 150.265 26.9889 150.265 26.4384C150.265 25.8879 150.032 25.432 149.568 25.0707C149.103 24.6922 148.277 24.3223 147.09 23.961C145.542 23.4965 144.406 22.8771 143.684 22.1029C142.978 21.3287 142.626 20.3825 142.626 19.2642C142.626 18.0255 143.03 17.0363 143.839 16.2965C144.665 15.5395 145.766 15.161 147.142 15.161C147.847 15.161 148.441 15.2384 148.923 15.3932C149.404 15.5481 149.817 15.7029 150.161 15.8578C150.505 16.0126 150.798 16.09 151.039 16.09C151.211 16.09 151.357 16.0298 151.477 15.9094C151.615 15.7717 151.718 15.5739 151.787 15.3158H152.794C152.759 15.6771 152.733 16.0642 152.716 16.4771C152.699 16.8728 152.682 17.3459 152.665 17.8965C152.665 18.4298 152.673 19.1008 152.69 19.9094H151.684C151.391 18.7051 150.892 17.7932 150.187 17.1739C149.482 16.5373 148.647 16.219 147.684 16.219C147.013 16.219 146.488 16.3739 146.11 16.6836C145.748 16.976 145.568 17.3889 145.568 17.9223C145.568 18.5072 145.817 18.9889 146.316 19.3674C146.815 19.7459 147.692 20.1158 148.948 20.4771C150.428 20.9072 151.512 21.475 152.2 22.1803C152.888 22.8857 153.232 23.8147 153.232 24.9674C153.232 26.3094 152.794 27.3588 151.916 28.1158C151.039 28.8728 149.834 29.2513 148.303 29.2513ZM159.471 29.2513C158.353 29.2513 157.467 28.9588 156.813 28.3739C156.159 27.7889 155.832 26.9889 155.832 25.9739C155.832 25.1997 156.013 24.5717 156.374 24.09C156.736 23.5911 157.2 23.1868 157.768 22.8771C158.353 22.5674 158.964 22.3094 159.6 22.1029C160.254 21.8965 160.865 21.6986 161.432 21.5094C162.017 21.3201 162.491 21.0965 162.852 20.8384C163.213 20.5803 163.394 20.2363 163.394 19.8061V18.5674C163.394 17.8104 163.196 17.2341 162.8 16.8384C162.422 16.4255 161.863 16.219 161.123 16.219C160.572 16.219 160.125 16.2965 159.781 16.4513C159.454 16.6061 159.291 16.8212 159.291 17.0965C159.291 17.3201 159.359 17.5438 159.497 17.7674C159.652 17.9739 159.798 18.1975 159.936 18.4384C160.073 18.6793 160.142 18.9459 160.142 19.2384C160.142 19.6341 159.979 19.9524 159.652 20.1932C159.325 20.4341 158.886 20.5545 158.336 20.5545C157.734 20.5545 157.252 20.3825 156.891 20.0384C156.546 19.6943 156.374 19.2298 156.374 18.6449C156.374 17.9395 156.624 17.3287 157.123 16.8126C157.622 16.2965 158.318 15.8922 159.213 15.5997C160.108 15.3072 161.149 15.161 162.336 15.161C163.54 15.161 164.512 15.3244 165.252 15.6513C166.009 15.961 166.551 16.4771 166.878 17.1997C167.222 17.9223 167.394 18.8943 167.394 20.1158V26.7223C167.394 27.1008 167.454 27.376 167.574 27.5481C167.695 27.7029 167.884 27.7803 168.142 27.7803C168.349 27.7803 168.555 27.7373 168.761 27.6513C168.985 27.5653 169.209 27.4449 169.432 27.29L169.845 28.1158C169.381 28.4943 168.848 28.7782 168.245 28.9674C167.66 29.1567 166.998 29.2513 166.258 29.2513C164.417 29.2513 163.48 28.5631 163.445 27.1868C162.964 27.875 162.387 28.3911 161.716 28.7352C161.063 29.0793 160.314 29.2513 159.471 29.2513ZM161.432 27.2126C161.811 27.2126 162.172 27.1266 162.516 26.9545C162.86 26.7825 163.153 26.5158 163.394 26.1545V21.2513C163.273 21.5266 163.067 21.7674 162.774 21.9739C162.499 22.1631 162.189 22.3524 161.845 22.5416C161.501 22.7309 161.166 22.9459 160.839 23.1868C160.529 23.4276 160.263 23.7201 160.039 24.0642C159.832 24.4083 159.729 24.8298 159.729 25.3287C159.729 25.9309 159.875 26.3954 160.168 26.7223C160.478 27.0492 160.899 27.2126 161.432 27.2126ZM179.864 28.89V27.8836C180.466 27.8664 180.87 27.7287 181.076 27.4707C181.3 27.1954 181.412 26.7137 181.412 26.0255V19.4707C181.412 18.6276 181.24 17.9997 180.896 17.5868C180.552 17.1567 180.053 16.9416 179.399 16.9416C178.883 16.9416 178.41 17.0879 177.98 17.3803C177.55 17.6728 177.18 18.1029 176.87 18.6707V17.5352C177.3 16.7954 177.876 16.219 178.599 15.8061C179.339 15.376 180.19 15.161 181.154 15.161C182.53 15.161 183.58 15.5653 184.302 16.3739C185.042 17.1825 185.412 18.3438 185.412 19.8578V26.0255C185.412 26.7137 185.575 27.1954 185.902 27.4707C186.229 27.7287 186.823 27.8664 187.683 27.8836V28.89C187.425 28.8728 187.064 28.8642 186.599 28.8642C186.134 28.847 185.636 28.8298 185.102 28.8126C184.569 28.7954 184.036 28.7868 183.502 28.7868C182.797 28.7868 182.1 28.804 181.412 28.8384C180.724 28.8556 180.208 28.8728 179.864 28.89ZM170.728 28.89V27.8836C171.588 27.8664 172.182 27.7287 172.509 27.4707C172.836 27.1954 172.999 26.7137 172.999 26.0255V18.7997C172.999 17.9911 172.827 17.4233 172.483 17.0965C172.156 16.7524 171.571 16.5631 170.728 16.5287V15.5223C171.107 15.5395 171.476 15.5567 171.838 15.5739C172.199 15.5911 172.56 15.5997 172.922 15.5997C173.73 15.5997 174.47 15.5739 175.141 15.5223C175.812 15.4535 176.431 15.3588 176.999 15.2384V26.0255C176.999 26.7137 177.111 27.1954 177.334 27.4707C177.558 27.7287 177.962 27.8664 178.547 27.8836V28.89C178.169 28.8728 177.661 28.8556 177.025 28.8384C176.388 28.804 175.734 28.7868 175.064 28.7868C174.289 28.7868 173.489 28.804 172.664 28.8384C171.855 28.8556 171.21 28.8728 170.728 28.89ZM192.815 29.2513C191.697 29.2513 190.811 28.9588 190.157 28.3739C189.503 27.7889 189.176 26.9889 189.176 25.9739C189.176 25.1997 189.357 24.5717 189.718 24.09C190.079 23.5911 190.544 23.1868 191.112 22.8771C191.697 22.5674 192.307 22.3094 192.944 22.1029C193.598 21.8965 194.208 21.6986 194.776 21.5094C195.361 21.3201 195.834 21.0965 196.196 20.8384C196.557 20.5803 196.738 20.2363 196.738 19.8061V18.5674C196.738 17.8104 196.54 17.2341 196.144 16.8384C195.765 16.4255 195.206 16.219 194.467 16.219C193.916 16.219 193.469 16.2965 193.125 16.4513C192.798 16.6061 192.634 16.8212 192.634 17.0965C192.634 17.3201 192.703 17.5438 192.841 17.7674C192.996 17.9739 193.142 18.1975 193.279 18.4384C193.417 18.6793 193.486 18.9459 193.486 19.2384C193.486 19.6341 193.322 19.9524 192.996 20.1932C192.669 20.4341 192.23 20.5545 191.679 20.5545C191.077 20.5545 190.596 20.3825 190.234 20.0384C189.89 19.6943 189.718 19.2298 189.718 18.6449C189.718 17.9395 189.968 17.3287 190.467 16.8126C190.965 16.2965 191.662 15.8922 192.557 15.5997C193.451 15.3072 194.492 15.161 195.679 15.161C196.884 15.161 197.856 15.3244 198.596 15.6513C199.353 15.961 199.894 16.4771 200.221 17.1997C200.565 17.9223 200.738 18.8943 200.738 20.1158V26.7223C200.738 27.1008 200.798 27.376 200.918 27.5481C201.039 27.7029 201.228 27.7803 201.486 27.7803C201.692 27.7803 201.899 27.7373 202.105 27.6513C202.329 27.5653 202.553 27.4449 202.776 27.29L203.189 28.1158C202.725 28.4943 202.191 28.7782 201.589 28.9674C201.004 29.1567 200.342 29.2513 199.602 29.2513C197.761 29.2513 196.824 28.5631 196.789 27.1868C196.307 27.875 195.731 28.3911 195.06 28.7352C194.406 29.0793 193.658 29.2513 192.815 29.2513ZM194.776 27.2126C195.155 27.2126 195.516 27.1266 195.86 26.9545C196.204 26.7825 196.497 26.5158 196.738 26.1545V21.2513C196.617 21.5266 196.411 21.7674 196.118 21.9739C195.843 22.1631 195.533 22.3524 195.189 22.5416C194.845 22.7309 194.51 22.9459 194.183 23.1868C193.873 23.4276 193.606 23.7201 193.383 24.0642C193.176 24.4083 193.073 24.8298 193.073 25.3287C193.073 25.9309 193.219 26.3954 193.512 26.7223C193.821 27.0492 194.243 27.2126 194.776 27.2126ZM204 28.89V27.8836C204.826 27.8664 205.402 27.7287 205.729 27.4707C206.073 27.2126 206.245 26.7309 206.245 26.0255V12.2707C206.245 11.4965 206.082 10.9287 205.755 10.5674C205.445 10.2061 204.86 10.0169 204 9.99969V8.96743C204.344 8.98464 204.697 9.00184 205.058 9.01905C205.419 9.03625 205.772 9.04485 206.116 9.04485C206.89 9.04485 207.621 9.01905 208.309 8.96743C209.015 8.89862 209.66 8.80399 210.245 8.68356V26.0255C210.245 26.7481 210.417 27.2384 210.761 27.4965C211.105 27.7373 211.69 27.8664 212.516 27.8836V28.89C212.258 28.8728 211.897 28.8642 211.432 28.8642C210.985 28.847 210.486 28.8298 209.935 28.8126C209.402 28.7954 208.86 28.7868 208.309 28.7868C207.518 28.7868 206.701 28.804 205.858 28.8384C205.032 28.8556 204.413 28.8728 204 28.89Z" fill="black"/>
<path fill-rule="evenodd" clip-rule="evenodd" d="M22 3.27427C34.2048 -8.09303 64.7197 11.7985 22 37.3761C-20.7197 11.801 9.79517 -8.09303 22 3.27427Z" fill="#BF6529"/>
</svg>
