<svg width="214" height="42" viewBox="0 0 214 42" fill="none" xmlns="http://www.w3.org/2000/svg">
<path d="M58.0323 29V27.9935C58.8065 27.9591 59.3742 27.8903 59.7355 27.7871C60.114 27.6839 60.3634 27.4774 60.4839 27.1677C60.6043 26.8581 60.6645 26.3935 60.6645 25.7742V13.9548C60.6645 13.3355 60.6043 12.8796 60.4839 12.5871C60.3634 12.2774 60.114 12.0624 59.7355 11.9419C59.357 11.8215 58.7892 11.7527 58.0323 11.7355V10.729C58.3935 10.7462 58.9699 10.7634 59.7613 10.7806C60.5527 10.7806 61.5419 10.7806 62.729 10.7806C63.8817 10.7806 64.8022 10.772 65.4903 10.7548C66.1957 10.7376 66.7548 10.729 67.1677 10.729C69.4387 10.729 71.1419 11.0817 72.2774 11.7871C73.4129 12.4925 73.9806 13.5677 73.9806 15.0129C73.9806 16.1656 73.5333 17.1118 72.6387 17.8516C71.7441 18.5742 70.4022 19.0817 68.6129 19.3742V19.4C70.8495 19.5204 72.5441 19.9763 73.6968 20.7677C74.8495 21.5419 75.4258 22.643 75.4258 24.071C75.4258 25.6194 74.7462 26.8323 73.3871 27.7097C72.0452 28.5699 70.1699 29 67.7613 29C67.4516 29 67.0903 28.9914 66.6774 28.9742C66.2645 28.957 65.7398 28.9484 65.1032 28.9484C64.4839 28.9312 63.7011 28.9226 62.7548 28.9226C61.5677 28.9226 60.5699 28.9312 59.7613 28.9484C58.9699 28.9484 58.3935 28.9656 58.0323 29ZM67.0129 27.9419C68.2516 27.9419 69.1892 27.6151 69.8258 26.9613C70.4624 26.2903 70.7806 25.3269 70.7806 24.071C70.7806 22.7462 70.4108 21.7398 69.671 21.0516C68.9484 20.3462 67.8817 19.9935 66.471 19.9935H63.8903V19.0387H66.3677C67.4688 19.0387 68.3204 18.7032 68.9226 18.0323C69.5247 17.3613 69.8258 16.4237 69.8258 15.2194C69.8258 14.1183 69.5591 13.2667 69.0258 12.6645C68.4925 12.0452 67.7011 11.7355 66.6516 11.7355H65.1032V25.8C65.1032 26.3677 65.1548 26.8065 65.2581 27.1161C65.3785 27.4258 65.5763 27.6409 65.8516 27.7613C66.1269 27.8817 66.514 27.9419 67.0129 27.9419ZM77.1343 29V27.9935C77.9773 27.9763 78.5622 27.8387 78.8891 27.5806C79.2332 27.3226 79.4052 26.8409 79.4052 26.1355V18.9097C79.4052 18.1355 79.2418 17.5763 78.9149 17.2323C78.6052 16.871 78.0117 16.6731 77.1343 16.6387V15.6323C77.4956 15.6495 77.8483 15.6667 78.1923 15.6839C78.5536 15.7011 78.9149 15.7097 79.2762 15.7097C80.0676 15.7097 80.8074 15.6839 81.4956 15.6323C82.1837 15.5634 82.8203 15.4688 83.4052 15.3484V26.1355C83.4052 26.8581 83.5773 27.3484 83.9214 27.6065C84.2655 27.8473 84.8504 27.9763 85.6762 27.9935V29C85.4181 28.9828 85.0569 28.9742 84.5923 28.9742C84.145 28.957 83.6461 28.9398 83.0956 28.9226C82.5622 28.9054 82.0203 28.8968 81.4698 28.8968C80.6612 28.8968 79.844 28.914 79.0181 28.9484C78.1923 28.9656 77.5644 28.9828 77.1343 29ZM81.2891 13.1548C80.687 13.1548 80.145 12.9656 79.6633 12.5871C79.1988 12.2086 78.9665 11.6839 78.9665 11.0129C78.9665 10.3247 79.1988 9.7914 79.6633 9.4129C80.145 9.03441 80.687 8.84516 81.2891 8.84516C81.8913 8.84516 82.4332 9.03441 82.9149 9.4129C83.3966 9.7914 83.6375 10.3161 83.6375 10.9871C83.6375 11.6753 83.3966 12.2086 82.9149 12.5871C82.4332 12.9656 81.8913 13.1548 81.2891 13.1548ZM90.9399 29.3613C89.8216 29.3613 88.9356 29.0688 88.2819 28.4839C87.6281 27.8989 87.3012 27.0989 87.3012 26.0839C87.3012 25.3097 87.4819 24.6817 87.8431 24.2C88.2044 23.7011 88.669 23.2968 89.2367 22.9871C89.8216 22.6774 90.4324 22.4194 91.069 22.2129C91.7227 22.0065 92.3335 21.8086 92.9012 21.6194C93.4862 21.4301 93.9593 21.2065 94.3206 20.9484C94.6819 20.6903 94.8625 20.3462 94.8625 19.9161V18.6774C94.8625 17.9204 94.6647 17.3441 94.269 16.9484C93.8905 16.5355 93.3313 16.329 92.5915 16.329C92.041 16.329 91.5937 16.4065 91.2496 16.5613C90.9227 16.7161 90.7593 16.9312 90.7593 17.2065C90.7593 17.4301 90.8281 17.6538 90.9657 17.8774C91.1206 18.0839 91.2668 18.3075 91.4044 18.5484C91.5421 18.7892 91.6109 19.0559 91.6109 19.3484C91.6109 19.7441 91.4474 20.0624 91.1206 20.3032C90.7937 20.5441 90.355 20.6645 89.8044 20.6645C89.2023 20.6645 88.7206 20.4925 88.3593 20.1484C88.0152 19.8043 87.8431 19.3398 87.8431 18.7548C87.8431 18.0495 88.0926 17.4387 88.5915 16.9226C89.0905 16.4065 89.7872 16.0022 90.6819 15.7097C91.5765 15.4172 92.6173 15.271 93.8044 15.271C95.0087 15.271 95.9808 15.4344 96.7206 15.7613C97.4776 16.071 98.0195 16.5871 98.3464 17.3097C98.6905 18.0323 98.8625 19.0043 98.8625 20.2258V26.8323C98.8625 27.2108 98.9227 27.486 99.0431 27.6581C99.1636 27.8129 99.3528 27.8903 99.6109 27.8903C99.8173 27.8903 100.024 27.8473 100.23 27.7613C100.454 27.6753 100.678 27.5548 100.901 27.4L101.314 28.2258C100.85 28.6043 100.316 28.8882 99.7141 29.0774C99.1292 29.2667 98.4668 29.3613 97.727 29.3613C95.8862 29.3613 94.9485 28.6731 94.9141 27.2968C94.4324 27.9849 93.856 28.5011 93.1851 28.8452C92.5313 29.1892 91.7829 29.3613 90.9399 29.3613ZM92.9012 27.3226C93.2797 27.3226 93.641 27.2366 93.9851 27.0645C94.3292 26.8925 94.6216 26.6258 94.8625 26.2645V21.3613C94.7421 21.6366 94.5356 21.8774 94.2431 22.0839C93.9679 22.2731 93.6582 22.4624 93.3141 22.6516C92.97 22.8409 92.6345 23.0559 92.3077 23.2968C91.998 23.5376 91.7313 23.8301 91.5077 24.1742C91.3012 24.5183 91.198 24.9398 91.198 25.4387C91.198 26.0409 91.3442 26.5054 91.6367 26.8323C91.9464 27.1591 92.3679 27.3226 92.9012 27.3226ZM102.197 29V27.9935C103.074 27.9763 103.668 27.8387 103.977 27.5806C104.304 27.3054 104.468 26.8237 104.468 26.1355V18.9097C104.468 18.1011 104.296 17.5333 103.952 17.2065C103.608 16.8624 103.023 16.6731 102.197 16.6387V15.6323C102.747 15.6495 103.177 15.6667 103.487 15.6839C103.814 15.7011 104.175 15.7097 104.571 15.7097C106.085 15.7097 107.384 15.5892 108.468 15.3484V25.9032C108.468 26.6602 108.691 27.1935 109.139 27.5032C109.586 27.8129 110.377 27.9763 111.513 27.9935V29C111.186 28.9828 110.747 28.9742 110.197 28.9742C109.646 28.957 109.053 28.9398 108.416 28.9226C107.78 28.9054 107.16 28.8968 106.558 28.8968C105.681 28.8968 104.829 28.914 104.003 28.9484C103.195 28.9656 102.592 28.9828 102.197 29ZM112.597 20.6903C112.132 20.6903 111.762 20.5699 111.487 20.329C111.212 20.071 111.074 19.7355 111.074 19.3226C111.074 19.0645 111.117 18.8323 111.203 18.6258C111.306 18.4194 111.401 18.2215 111.487 18.0323C111.573 17.843 111.616 17.6538 111.616 17.4645C111.616 17.086 111.375 16.8968 110.894 16.8968C110.567 16.8968 110.24 16.9742 109.913 17.129C109.586 17.2839 109.285 17.5075 109.01 17.8C108.752 18.0753 108.545 18.4022 108.39 18.7806L108.339 17.671C108.734 16.9312 109.276 16.3462 109.965 15.9161C110.653 15.486 111.384 15.271 112.158 15.271C112.984 15.271 113.629 15.5118 114.094 15.9935C114.558 16.4753 114.79 17.1462 114.79 18.0065C114.79 18.8151 114.584 19.4688 114.171 19.9677C113.775 20.4495 113.251 20.6903 112.597 20.6903ZM122.14 29.3613C120.781 29.3613 119.749 28.9914 119.044 28.2516C118.355 27.4946 118.011 26.3849 118.011 24.9226V16.6387H115.327V15.6323H118.011V11.9677C118.785 11.9677 119.499 11.9247 120.153 11.8387C120.807 11.7355 121.426 11.5978 122.011 11.4258V15.6323H125.65V16.6387H122.011V25.8258C122.011 26.4108 122.132 26.8495 122.373 27.1419C122.631 27.4172 123.001 27.5548 123.482 27.5548C123.93 27.5548 124.308 27.4172 124.618 27.1419C124.945 26.8667 125.228 26.4452 125.469 25.8774L126.244 26.2645C125.865 27.3484 125.349 28.1398 124.695 28.6387C124.059 29.1204 123.207 29.3613 122.14 29.3613ZM133.779 29.3613C132.471 29.3613 131.336 29.086 130.372 28.5355C129.409 27.9677 128.66 27.1591 128.127 26.1097C127.611 25.0602 127.353 23.8129 127.353 22.3677C127.353 20.8366 127.637 19.5462 128.204 18.4968C128.772 17.4301 129.564 16.6301 130.579 16.0968C131.611 15.5462 132.807 15.271 134.166 15.271C135.404 15.271 136.445 15.4946 137.288 15.9419C138.131 16.3892 138.768 17.0774 139.198 18.0065C139.628 18.9355 139.826 20.1312 139.792 21.5935H130.269L130.217 20.6129H136.308C136.325 19.7699 136.256 19.0301 136.101 18.3935C135.946 17.7398 135.706 17.2323 135.379 16.871C135.052 16.4925 134.622 16.3032 134.088 16.3032C133.417 16.3032 132.841 16.6645 132.359 17.3871C131.895 18.0925 131.619 19.228 131.533 20.7935L131.585 20.8968C131.568 21.0516 131.551 21.2151 131.533 21.3871C131.533 21.5591 131.533 21.7656 131.533 22.0065C131.533 23.6925 131.843 25.0086 132.463 25.9548C133.099 26.8839 134.011 27.3484 135.198 27.3484C136.041 27.3484 136.764 27.1419 137.366 26.729C137.985 26.3161 138.51 25.6796 138.94 24.8194L139.869 25.3097C139.336 26.6344 138.553 27.6409 137.521 28.329C136.488 29.0172 135.241 29.3613 133.779 29.3613ZM148.303 29.3613C147.563 29.3613 146.944 29.2839 146.445 29.129C145.963 28.9742 145.551 28.828 145.206 28.6903C144.88 28.5355 144.587 28.4581 144.329 28.4581C143.899 28.4581 143.589 28.7161 143.4 29.2323H142.394C142.445 28.7505 142.48 28.2688 142.497 27.7871C142.514 27.2882 142.523 26.7376 142.523 26.1355C142.523 25.5161 142.523 24.8194 142.523 24.0452H143.503C143.83 25.4559 144.363 26.5226 145.103 27.2452C145.86 27.9505 146.806 28.3032 147.942 28.3032C148.682 28.3032 149.249 28.1484 149.645 27.8387C150.058 27.529 150.265 27.0989 150.265 26.5484C150.265 25.9978 150.032 25.5419 149.568 25.1806C149.103 24.8022 148.277 24.4323 147.09 24.071C145.542 23.6065 144.406 22.9871 143.684 22.2129C142.978 21.4387 142.626 20.4925 142.626 19.3742C142.626 18.1355 143.03 17.1462 143.839 16.4065C144.665 15.6495 145.766 15.271 147.142 15.271C147.847 15.271 148.441 15.3484 148.923 15.5032C149.404 15.6581 149.817 15.8129 150.161 15.9677C150.505 16.1226 150.798 16.2 151.039 16.2C151.211 16.2 151.357 16.1398 151.477 16.0194C151.615 15.8817 151.718 15.6839 151.787 15.4258H152.794C152.759 15.7871 152.733 16.1742 152.716 16.5871C152.699 16.9828 152.682 17.4559 152.665 18.0065C152.665 18.5398 152.673 19.2108 152.69 20.0194H151.684C151.391 18.8151 150.892 17.9032 150.187 17.2839C149.482 16.6473 148.647 16.329 147.684 16.329C147.013 16.329 146.488 16.4839 146.11 16.7935C145.748 17.086 145.568 17.4989 145.568 18.0323C145.568 18.6172 145.817 19.0989 146.316 19.4774C146.815 19.8559 147.692 20.2258 148.948 20.5871C150.428 21.0172 151.512 21.5849 152.2 22.2903C152.888 22.9957 153.232 23.9247 153.232 25.0774C153.232 26.4194 152.794 27.4688 151.916 28.2258C151.039 28.9828 149.834 29.3613 148.303 29.3613ZM159.471 29.3613C158.353 29.3613 157.467 29.0688 156.813 28.4839C156.159 27.8989 155.832 27.0989 155.832 26.0839C155.832 25.3097 156.013 24.6817 156.374 24.2C156.736 23.7011 157.2 23.2968 157.768 22.9871C158.353 22.6774 158.964 22.4194 159.6 22.2129C160.254 22.0065 160.865 21.8086 161.432 21.6194C162.017 21.4301 162.491 21.2065 162.852 20.9484C163.213 20.6903 163.394 20.3462 163.394 19.9161V18.6774C163.394 17.9204 163.196 17.3441 162.8 16.9484C162.422 16.5355 161.863 16.329 161.123 16.329C160.572 16.329 160.125 16.4065 159.781 16.5613C159.454 16.7161 159.291 16.9312 159.291 17.2065C159.291 17.4301 159.359 17.6538 159.497 17.8774C159.652 18.0839 159.798 18.3075 159.936 18.5484C160.073 18.7892 160.142 19.0559 160.142 19.3484C160.142 19.7441 159.979 20.0624 159.652 20.3032C159.325 20.5441 158.886 20.6645 158.336 20.6645C157.734 20.6645 157.252 20.4925 156.891 20.1484C156.546 19.8043 156.374 19.3398 156.374 18.7548C156.374 18.0495 156.624 17.4387 157.123 16.9226C157.622 16.4065 158.318 16.0022 159.213 15.7097C160.108 15.4172 161.149 15.271 162.336 15.271C163.54 15.271 164.512 15.4344 165.252 15.7613C166.009 16.071 166.551 16.5871 166.878 17.3097C167.222 18.0323 167.394 19.0043 167.394 20.2258V26.8323C167.394 27.2108 167.454 27.486 167.574 27.6581C167.695 27.8129 167.884 27.8903 168.142 27.8903C168.349 27.8903 168.555 27.8473 168.761 27.7613C168.985 27.6753 169.209 27.5548 169.432 27.4L169.845 28.2258C169.381 28.6043 168.848 28.8882 168.245 29.0774C167.66 29.2667 166.998 29.3613 166.258 29.3613C164.417 29.3613 163.48 28.6731 163.445 27.2968C162.964 27.9849 162.387 28.5011 161.716 28.8452C161.063 29.1892 160.314 29.3613 159.471 29.3613ZM161.432 27.3226C161.811 27.3226 162.172 27.2366 162.516 27.0645C162.86 26.8925 163.153 26.6258 163.394 26.2645V21.3613C163.273 21.6366 163.067 21.8774 162.774 22.0839C162.499 22.2731 162.189 22.4624 161.845 22.6516C161.501 22.8409 161.166 23.0559 160.839 23.2968C160.529 23.5376 160.263 23.8301 160.039 24.1742C159.832 24.5183 159.729 24.9398 159.729 25.4387C159.729 26.0409 159.875 26.5054 160.168 26.8323C160.478 27.1591 160.899 27.3226 161.432 27.3226ZM179.864 29V27.9935C180.466 27.9763 180.87 27.8387 181.076 27.5806C181.3 27.3054 181.412 26.8237 181.412 26.1355V19.5806C181.412 18.7376 181.24 18.1097 180.896 17.6968C180.552 17.2667 180.053 17.0516 179.399 17.0516C178.883 17.0516 178.41 17.1978 177.98 17.4903C177.55 17.7828 177.18 18.2129 176.87 18.7806V17.6452C177.3 16.9054 177.876 16.329 178.599 15.9161C179.339 15.486 180.19 15.271 181.154 15.271C182.53 15.271 183.58 15.6753 184.302 16.4839C185.042 17.2925 185.412 18.4538 185.412 19.9677V26.1355C185.412 26.8237 185.575 27.3054 185.902 27.5806C186.229 27.8387 186.823 27.9763 187.683 27.9935V29C187.425 28.9828 187.064 28.9742 186.599 28.9742C186.134 28.957 185.636 28.9398 185.102 28.9226C184.569 28.9054 184.036 28.8968 183.502 28.8968C182.797 28.8968 182.1 28.914 181.412 28.9484C180.724 28.9656 180.208 28.9828 179.864 29ZM170.728 29V27.9935C171.588 27.9763 172.182 27.8387 172.509 27.5806C172.836 27.3054 172.999 26.8237 172.999 26.1355V18.9097C172.999 18.1011 172.827 17.5333 172.483 17.2065C172.156 16.8624 171.571 16.6731 170.728 16.6387V15.6323C171.107 15.6495 171.476 15.6667 171.838 15.6839C172.199 15.7011 172.56 15.7097 172.922 15.7097C173.73 15.7097 174.47 15.6839 175.141 15.6323C175.812 15.5634 176.431 15.4688 176.999 15.3484V26.1355C176.999 26.8237 177.111 27.3054 177.334 27.5806C177.558 27.8387 177.962 27.9763 178.547 27.9935V29C178.169 28.9828 177.661 28.9656 177.025 28.9484C176.388 28.914 175.734 28.8968 175.064 28.8968C174.289 28.8968 173.489 28.914 172.664 28.9484C171.855 28.9656 171.21 28.9828 170.728 29ZM192.815 29.3613C191.697 29.3613 190.811 29.0688 190.157 28.4839C189.503 27.8989 189.176 27.0989 189.176 26.0839C189.176 25.3097 189.357 24.6817 189.718 24.2C190.079 23.7011 190.544 23.2968 191.112 22.9871C191.697 22.6774 192.307 22.4194 192.944 22.2129C193.598 22.0065 194.208 21.8086 194.776 21.6194C195.361 21.4301 195.834 21.2065 196.196 20.9484C196.557 20.6903 196.738 20.3462 196.738 19.9161V18.6774C196.738 17.9204 196.54 17.3441 196.144 16.9484C195.765 16.5355 195.206 16.329 194.467 16.329C193.916 16.329 193.469 16.4065 193.125 16.5613C192.798 16.7161 192.634 16.9312 192.634 17.2065C192.634 17.4301 192.703 17.6538 192.841 17.8774C192.996 18.0839 193.142 18.3075 193.279 18.5484C193.417 18.7892 193.486 19.0559 193.486 19.3484C193.486 19.7441 193.322 20.0624 192.996 20.3032C192.669 20.5441 192.23 20.6645 191.679 20.6645C191.077 20.6645 190.596 20.4925 190.234 20.1484C189.89 19.8043 189.718 19.3398 189.718 18.7548C189.718 18.0495 189.968 17.4387 190.467 16.9226C190.965 16.4065 191.662 16.0022 192.557 15.7097C193.451 15.4172 194.492 15.271 195.679 15.271C196.884 15.271 197.856 15.4344 198.596 15.7613C199.353 16.071 199.894 16.5871 200.221 17.3097C200.565 18.0323 200.738 19.0043 200.738 20.2258V26.8323C200.738 27.2108 200.798 27.486 200.918 27.6581C201.039 27.8129 201.228 27.8903 201.486 27.8903C201.692 27.8903 201.899 27.8473 202.105 27.7613C202.329 27.6753 202.553 27.5548 202.776 27.4L203.189 28.2258C202.725 28.6043 202.191 28.8882 201.589 29.0774C201.004 29.2667 200.342 29.3613 199.602 29.3613C197.761 29.3613 196.824 28.6731 196.789 27.2968C196.307 27.9849 195.731 28.5011 195.06 28.8452C194.406 29.1892 193.658 29.3613 192.815 29.3613ZM194.776 27.3226C195.155 27.3226 195.516 27.2366 195.86 27.0645C196.204 26.8925 196.497 26.6258 196.738 26.2645V21.3613C196.617 21.6366 196.411 21.8774 196.118 22.0839C195.843 22.2731 195.533 22.4624 195.189 22.6516C194.845 22.8409 194.51 23.0559 194.183 23.2968C193.873 23.5376 193.606 23.8301 193.383 24.1742C193.176 24.5183 193.073 24.9398 193.073 25.4387C193.073 26.0409 193.219 26.5054 193.512 26.8323C193.821 27.1591 194.243 27.3226 194.776 27.3226ZM204 29V27.9935C204.826 27.9763 205.402 27.8387 205.729 27.5806C206.073 27.3226 206.245 26.8409 206.245 26.1355V12.3806C206.245 11.6065 206.082 11.0387 205.755 10.6774C205.445 10.3161 204.86 10.1269 204 10.1097V9.07742C204.344 9.09462 204.697 9.11183 205.058 9.12903C205.419 9.14624 205.772 9.15484 206.116 9.15484C206.89 9.15484 207.621 9.12903 208.309 9.07742C209.015 9.0086 209.66 8.91398 210.245 8.79355V26.1355C210.245 26.8581 210.417 27.3484 210.761 27.6065C211.105 27.8473 211.69 27.9763 212.516 27.9935V29C212.258 28.9828 211.897 28.9742 211.432 28.9742C210.985 28.957 210.486 28.9398 209.935 28.9226C209.402 28.9054 208.86 28.8968 208.309 28.8968C207.518 28.8968 206.701 28.914 205.858 28.9484C205.032 28.9656 204.413 28.9828 204 29Z" fill="#F6F5F1"/>
<path fill-rule="evenodd" clip-rule="evenodd" d="M22 3.67933C34.2048 -9.09422 64.7197 13.2581 22 42C-20.7197 13.2609 9.79517 -9.09422 22 3.67933Z" fill="#BF6529"/>
</svg>
